Coordinates
version=1
nRows=11
nColumns=26
inDegrees=yes

Units are S.I. units (second, meters, Newtons, ...)
If the header above contains a line with 'inDegrees', this indicates whether rotational values are in degrees (yes) or radians (no).

endheader
time	pelvis_tilt	pelvis_list	pelvis_rotation	pelvis_tx	pelvis_ty	pelvis_tz	hip_flexion_r	hip_adduction_r	hip_rotation_r	knee_angle_r	knee_angle_r_beta	hip_flexion_l	hip_adduction_l	hip_rotation_l	knee_angle_l	knee_angle_l_beta	lumbar_extension	lumbar_bending	lumbar_rotation	ankle_angle_r	subtalar_angle_r	mtp_angle_r	ankle_angle_l	subtalar_angle_l	mtp_angle_l
      0.05000000	     -0.49975878	      5.59591037	     10.13158143	     -1.32373279	      0.82941302	      0.19529464	     32.37018946	    -16.88549814	    -25.48945003	     20.34331465	      0.35505782	    -19.89713186	      2.62663538	      3.92540508	     12.27227125	      0.21419154	    -20.23439107	     -3.51070311	    -13.65969618	    -14.12100391	      4.30247529	      0.00000000	     13.37255298	     11.75531464	      0.00000000
      0.06000000	     -0.35734791	      4.95036186	      9.92991330	     -1.30641381	      0.82873168	      0.19757847	     31.68974878	    -15.56528381	    -25.33238510	     21.09898122	      0.36824669	    -19.68780381	      1.56205691	      2.12089219	     14.59296695	      0.25469532	    -19.98768694	     -2.84202357	    -13.42923093	    -13.11134417	      2.66239152	      0.00000000	     11.66441239	     11.83448708	      0.00000000
      0.07000000	     -0.16716905	      4.42212253	      9.72790527	     -1.28904431	      0.82818803	      0.19974766	     30.89595294	    -14.37219626	    -25.17517783	     21.98256328	      0.38366811	    -19.45219007	      0.66818053	      0.97481539	     16.97771035	      0.29631695	    -19.80769380	     -2.30106945	    -13.31143399	    -11.34988068	      0.94107035	      0.00000000	      9.11123755	     10.93590755	      0.00000000
      0.08000000	     -0.27067228	      3.71715606	      9.19148283	     -1.27179683	      0.82726174	      0.20224670	     30.47334904	    -12.65316791	    -23.92688894	     22.59721015	      0.39439572	    -18.50780980	     -0.37659643	     -1.17955587	     20.04905072	      0.34992195	    -19.24473842	     -1.66971020	    -12.60820236	    -10.27365014	     -2.34783149	      0.00000000	      6.58148646	     10.53102875	      0.00000000
      0.09000000	     -0.21046509	      3.02857384	      8.68590382	     -1.25455213	      0.82667253	      0.20451574	     29.79448772	    -11.06081683	    -23.09351369	     23.29167362	      0.40651639	    -17.68678128	     -1.37718784	     -2.66989752	     23.07515001	      0.40273734	    -18.88624140	     -0.96071947	    -12.10942318	     -8.41984075	     -5.01836725	      0.00000000	      3.11389706	      9.04612810	      0.00000000
      0.10000000	     -0.24539186	      2.29627118	      8.04836364	     -1.23756147	      0.82609642	      0.20692895	     29.22337195	     -9.31028776	    -21.80373863	     23.87567346	      0.41670911	    -16.54448717	     -2.39266024	     -4.08746166	     26.37677230	      0.46036152	    -18.45087165	     -0.29177421	    -11.30378674	     -6.80059586	     -8.24471765	      0.00000000	     -0.90130213	      7.11110171	      0.00000000
      0.11000000	     -0.30018604	      1.61005511	      7.34771405	     -1.22091195	      0.82568850	      0.20933059	     28.68657831	     -7.61767184	    -20.38153179	     24.45589579	      0.42683590	    -15.21821881	     -3.32646719	     -5.29274366	     29.83592553	      0.52073514	    -18.09474395	      0.32369838	    -10.39874162	     -5.35983998	    -11.54382378	      0.00000000	     -5.36216958	      4.57239999	      0.00000000
      0.12000000	     -0.21509435	      0.70263247	      6.68113744	     -1.20442144	      0.82563209	      0.21162594	     27.96274905	     -5.88265211	    -19.54465234	     25.10862190	      0.43822812	    -13.85317411	     -4.59818846	     -6.55598345	     33.47120373	      0.58418271	    -17.90357440	      1.26086841	     -9.77769605	     -3.42486480	    -13.54272987	      0.00000000	    -10.05521809	      1.74111467	      0.00000000
      0.13000000	     -0.32557759	      0.02508053	      5.98355053	     -1.18848908	      0.82569487	      0.21383745	     27.48010845	     -4.40921998	    -18.26975238	     25.77657339	      0.44988608	    -12.10899114	     -5.47208504	     -7.21243648	     37.19061097	      0.64909861	    -17.60846657	      1.86419367	     -8.64945456	     -2.01427087	    -15.66823367	      0.00000000	    -15.21050671	     -2.11823738	      0.00000000
      0.14000000	     -0.32995880	     -0.77082812	      5.35265170	     -1.17288533	      0.82610429	      0.21605148	     26.86038169	     -2.99299459	    -17.49240929	     26.50808934	      0.46265344	    -10.30397577	     -6.57513678	     -7.85931702	     41.02114301	      0.71595401	    -17.49259635	      2.60741408	     -7.80843561	     -0.30718785	    -16.67613755	      0.00000000	    -20.12561682	     -6.13596141	      0.00000000
      0.15000000	     -0.30138506	     -1.58823674	      4.81739808	     -1.15766253	      0.82685307	      0.21819048	     26.14372067	     -1.67632481	    -16.95452635	     27.18058988	      0.47439079	     -8.36725811	     -7.72043054	     -8.21415051	     44.89903314	      0.78363596	    -17.48308347	      3.36187108	     -6.97940584	      1.31378954	    -17.14731679	      0.00000000	    -24.65536586	    -10.34013309	      0.00000000
